<?xml version="1.0" standalone="no"?><!DOCTYPE svg PUBLIC "-//W3C//DTD SVG 1.1//EN" "http://www.w3.org/Graphics/SVG/1.1/DTD/svg11.dtd"><svg t="1638003213705" class="icon" viewBox="0 0 1024 1024" version="1.1" xmlns="http://www.w3.org/2000/svg" p-id="12587" xmlns:xlink="http://www.w3.org/1999/xlink" width="200" height="200"><defs><style type="text/css"></style></defs><path d="M890.784 709.152c-45.664-45.568-103.712-69.088-157.952-69.088l-29.12 0-63.904-64 255.616-256.032c63.904-64 63.904-192.032 0-256.032l-383.424 384.064-383.424-384.064c-63.904 64-63.904 192.032 0 256.032l255.616 256.032-63.904 64-29.12 0c-54.208 0-112.288 23.52-157.952 69.088-81.632 81.44-92.64 202.496-24.64 270.336 29.984 29.888 70.272 44.48 112.992 44.48 54.208 0 112.288-23.52 157.952-69.088 53.6-53.472 76.736-124 67.072-185.344l65.376-65.504 65.376 65.504c-9.664 61.344 13.504 131.872 67.072 185.344 45.664 45.568 103.744 69.088 157.952 69.088 42.72 0 83.04-14.592 112.992-44.48 68.032-67.872 56.992-188.896-24.64-270.336zM353.024 845.536c-7.712 17.888-19.008 34.336-33.632 48.928s-31.168 25.92-49.152 33.632c-16.128 6.912-32.96 10.56-48.672 10.56-15.136 0-36.608-3.392-52.864-19.616-16.128-16.096-19.52-37.312-19.52-52.288 0-15.552 3.648-32.224 10.528-48.224 7.712-17.888 19.008-34.336 33.632-48.928s31.168-25.92 49.152-33.632c16.128-6.912 32.96-10.56 48.672-10.56 15.136 0 36.608 3.392 52.864 19.616 16.128 16.096 19.52 37.312 19.52 52.288 0 15.552-3.648 32.224-10.528 48.224zM512 666.592c-49.92 0-90.368-40.544-90.368-90.528s40.448-90.528 90.368-90.528 90.368 40.544 90.368 90.528c0 49.984-40.448 90.528-90.368 90.528zM855.264 919.04c-16.256 16.192-37.696 19.616-52.864 19.616-15.712 0-32.544-3.648-48.672-10.56-17.984-7.712-34.496-19.008-49.152-33.632s-25.92-31.04-33.632-48.928c-6.88-16-10.528-32.672-10.528-48.224 0-14.976 3.392-36.192 19.52-52.288 16.256-16.192 37.696-19.616 52.864-19.616 15.712 0 32.544 3.648 48.672 10.56 17.984 7.712 34.528 19.008 49.152 33.632s25.92 31.04 33.632 48.928c6.88 16 10.528 32.672 10.528 48.224 0 14.976-3.392 36.192-19.52 52.288z" p-id="12588" fill="#1296db"></path></svg>