<svg width="1024" height="1024" xmlns="http://www.w3.org/2000/svg" p-id="3173" version="1.1" class="icon" t="1637999536718">

 <g>
  <title>Layer 1</title>
  <path id="svg_1" p-id="3174" fill="#DBB100" d="m823.57617,796.13878a41.97443,41.97443 0 0 0 -36.43934,-46.12575l-154.98253,0l0,92.25151l154.98253,0a41.97443,41.97443 0 0 0 36.43934,-46.12576z"/>
  <path id="svg_2" p-id="3175" fill="#FFCE00" d="m78.64528,796.13878a41.97443,41.97443 0 0 1 36.43934,-46.12575l619.00759,0a41.97443,41.97443 0 0 1 36.43935,46.12575a41.97443,41.97443 0 0 1 -36.43935,46.12576l-619.00759,0a41.97443,41.97443 0 0 1 -36.43934,-46.12576zm830.26353,-614.39501l-620.85262,0a41.97443,41.97443 0 0 0 -36.43934,46.12575a41.97443,41.97443 0 0 0 36.43934,46.12575l620.85262,0a41.97443,41.97443 0 0 0 36.43935,-46.12575a41.97443,41.97443 0 0 0 -36.43935,-46.12575z"/>
  <path id="svg_3" p-id="3176" fill="#FFFF00" d="m678.28005,1010.62353l0,-428.50824a13.37647,13.37647 0 0 1 22.60162,-10.14766l238.00888,212.17846a13.37647,13.37647 0 0 1 0,20.29533l-238.00888,214.48475a13.37647,13.37647 0 0 1 -22.60162,-8.30264zm-357.01332,-1006.92517l-238.00888,214.02349a13.37647,13.37647 0 0 0 0,20.29533l238.00888,214.48475a13.37647,13.37647 0 0 0 22.60162,-10.14766l0,-428.50824a13.37647,13.37647 0 0 0 -22.60162,-10.14767z"/>
  <text font-weight="bold" transform="matrix(13.4683 0 0 14.2724 -1707.68 -5613.55)" xml:space="preserve" text-anchor="start" font-family="Noto Sans JP" font-size="24" id="svg_4" y="442.11884" x="133.06428" fill="#FFCE00">中</text>
  <text font-weight="bold" transform="matrix(13.4683 0 0 14.2724 -1077.68 -5710.22)" xml:space="preserve" text-anchor="start" font-family="Noto Sans JP" font-size="24" id="svg_7" y="440.01688" x="119.94708" fill="#FFCE00">英</text>
 </g>
</svg>