<?xml version="1.0" standalone="no"?><!DOCTYPE svg PUBLIC "-//W3C//DTD SVG 1.1//EN" "http://www.w3.org/Graphics/SVG/1.1/DTD/svg11.dtd"><svg t="1637999932724" class="icon" viewBox="0 0 1024 1024" version="1.1" xmlns="http://www.w3.org/2000/svg" p-id="3442" xmlns:xlink="http://www.w3.org/1999/xlink" width="200" height="200"><defs><style type="text/css"></style></defs><path d="M882.745836 173.058273L739.984896 29.432115A100.797876 100.797876 0 0 0 668.604426 0.014709h-259.565347A100.797876 100.797876 0 0 0 306.510767 100.812585v605.652475a100.797876 100.797876 0 0 0 100.797877 100.797876h403.624113a100.797876 100.797876 0 0 0 100.797876-100.797876V243.573525A100.797876 100.797876 0 0 0 882.745836 173.058273z" fill="#3FBCAA" p-id="3443"></path><path d="M688.071827 389.362728L544.445668 245.73657A100.797876 100.797876 0 0 0 473.930416 216.319164h-259.565346A100.797876 100.797876 0 0 0 111.836758 317.11704v605.652475a100.797876 100.797876 0 0 0 100.797876 100.797876h403.624113A100.797876 100.797876 0 0 0 717.489233 922.769515v-462.891534A100.797876 100.797876 0 0 0 688.071827 389.362728z" fill="#43EDCC" p-id="3444"></path></svg>