<?xml version="1.0" standalone="no"?><!DOCTYPE svg PUBLIC "-//W3C//DTD SVG 1.1//EN" "http://www.w3.org/Graphics/SVG/1.1/DTD/svg11.dtd"><svg t="1637999395089" class="icon" viewBox="0 0 1024 1024" version="1.1" xmlns="http://www.w3.org/2000/svg" p-id="3039" xmlns:xlink="http://www.w3.org/1999/xlink" width="200" height="200"><defs><style type="text/css"></style></defs><path d="M858.453333 218.453333L677.546667 37.546667A128 128 0 0 0 587.093333 0H256a128 128 0 0 0-128 128v768a128 128 0 0 0 128 128h512a128 128 0 0 0 128-128V308.906667a128 128 0 0 0-37.546667-90.453334z" fill="#6DD143" p-id="3040"></path><path d="M891.306667 277.333333H618.666667V4.693333a128 128 0 0 1 58.88 32.853334l180.906666 180.906666a128 128 0 0 1 32.853334 58.88z m-187.306667 256a42.666667 42.666667 0 0 0-42.666667-42.666666h-128v-128a42.666667 42.666667 0 0 0-85.333333 0v128h-128a42.666667 42.666667 0 0 0 0 85.333333h128v128a42.666667 42.666667 0 0 0 85.333333 0v-128h128a42.666667 42.666667 0 0 0 42.666667-42.666667z" fill="#5BAA37" p-id="3041"></path><path d="M884.053333 256H640V11.946667a128 128 0 0 1 37.546667 25.6l180.906666 180.906666a128 128 0 0 1 25.6 37.546667zM725.333333 512a42.666667 42.666667 0 0 0-42.666666-42.666667h-128V341.333333a42.666667 42.666667 0 0 0-85.333334 0v128H341.333333a42.666667 42.666667 0 0 0 0 85.333334h128v128a42.666667 42.666667 0 0 0 85.333334 0v-128h128a42.666667 42.666667 0 0 0 42.666666-42.666667z" fill="#C3FF08" p-id="3042"></path></svg>