<?xml version="1.0" standalone="no"?><!DOCTYPE svg PUBLIC "-//W3C//DTD SVG 1.1//EN" "http://www.w3.org/Graphics/SVG/1.1/DTD/svg11.dtd"><svg t="1637999759213" class="icon" viewBox="0 0 1123 1024" version="1.1" xmlns="http://www.w3.org/2000/svg" p-id="3307" xmlns:xlink="http://www.w3.org/1999/xlink" width="219.3359375" height="200"><defs><style type="text/css"></style></defs><path d="M1115.379493 352.147802L909.721359 22.426757a47.716504 47.716504 0 0 0-40.559029-22.426757H254.09659a47.716504 47.716504 0 0 0-40.559029 22.426757L7.402262 352.147802a47.716504 47.716504 0 0 0 4.294486 56.305475L525.126334 1007.295406a47.716504 47.716504 0 0 0 72.529087 0L1111.085007 408.453277a47.716504 47.716504 0 0 0 4.294486-56.305475z" fill="#FFC200" p-id="3308"></path><path d="M254.09659 0h615.06574a47.716504 47.716504 0 0 1 40.559029 22.426757l206.135299 329.721045a47.716504 47.716504 0 0 1 6.68031 29.584233H0.244787a47.716504 47.716504 0 0 1 6.68031-29.584233L213.537561 22.426757A47.716504 47.716504 0 0 1 254.09659 0zM179.658843 381.732035l365.031258 638.923992a47.716504 47.716504 0 0 0 33.401553 0L943.122912 381.732035z" fill="#FFE000" p-id="3309"></path><path d="M226.421017 9.066136A47.716504 47.716504 0 0 1 254.09659 0h307.771452l-381.732034 381.732035z m668.031061 0a47.716504 47.716504 0 0 0-25.289748-9.066136h-307.771453l381.732035 381.732035z" fill="#FFEC00" p-id="3310"></path><path d="M179.658843 381.732035h763.464069l-381.732035-381.732035-381.732034 381.732035z" fill="#FFFF00" p-id="3311"></path></svg>