<?xml version="1.0" standalone="no"?><!DOCTYPE svg PUBLIC "-//W3C//DTD SVG 1.1//EN" "http://www.w3.org/Graphics/SVG/1.1/DTD/svg11.dtd"><svg t="1638000106770" class="icon" viewBox="0 0 1024 1024" version="1.1" xmlns="http://www.w3.org/2000/svg" p-id="3843" xmlns:xlink="http://www.w3.org/1999/xlink" width="200" height="200"><defs><style type="text/css"></style></defs><path d="M22.26087 267.130435m133.565217 0l712.347826 0q133.565217 0 133.565217 133.565217l0 178.086957q0 133.565217-133.565217 133.565217l-712.347826 0q-133.565217 0-133.565217-133.565217l0-178.086957q0-133.565217 133.565217-133.565217Z" fill="#3391C1" p-id="3844"></path><path d="M756.869565 512h-534.260869a44.521739 44.521739 0 0 0 0 89.043478h44.521739V712.347826h445.217391v-111.304348h44.521739a44.521739 44.521739 0 0 0 0-89.043478z" fill="#287999" p-id="3845"></path><path d="M289.391304 267.130435V133.565217a133.565217 133.565217 0 0 1 133.565218-133.565217h178.086956a133.565217 133.565217 0 0 1 133.565218 133.565217v133.565218z m0 267.130435v356.173913a133.565217 133.565217 0 0 0 133.565218 133.565217h178.086956a133.565217 133.565217 0 0 0 133.565218-133.565217v-356.173913z" fill="#F2EFDC" p-id="3846"></path><path d="M289.391304 534.26087h445.217392v66.782608H289.391304z" fill="#D3D0C1" p-id="3847"></path><path d="M779.130435 578.782609H244.869565a44.521739 44.521739 0 0 1 0-89.043479h534.26087a44.521739 44.521739 0 0 1 0 89.043479z" fill="#70CAED" p-id="3848"></path></svg>