<?xml version="1.0" standalone="no"?><!DOCTYPE svg PUBLIC "-//W3C//DTD SVG 1.1//EN" "http://www.w3.org/Graphics/SVG/1.1/DTD/svg11.dtd"><svg t="1638000141256" class="icon" viewBox="0 0 1025 1024" version="1.1" xmlns="http://www.w3.org/2000/svg" p-id="3979" xmlns:xlink="http://www.w3.org/1999/xlink" width="200.1953125" height="200"><defs><style type="text/css"></style></defs><path d="M992.234825 474.253563a495.858964 495.858964 0 0 0-991.717929 44.214091 481.396411 481.396411 0 0 0 59.503076 244.21054 80.163866 80.163866 0 0 1 4.95859 64.048449L13.739802 981.269354a20.247574 20.247574 0 0 0 26.859027 25.61938l138.014079-53.718055a82.643161 82.643161 0 0 1 72.312765 4.132158A495.858964 495.858964 0 0 0 992.234825 474.253563z" fill="#21CC86" p-id="3980"></path><path d="M439.35208 710.613002a41.32158 41.32158 0 1 1 41.32158 41.321581 41.32158 41.32158 0 0 1-41.32158-41.321581z m82.643161-123.964741a77.684571 77.684571 0 0 1 33.057264-67.767391 123.964741 123.964741 0 0 0 49.585896-97.51893 114.047562 114.047562 0 0 0-123.964741-123.964741 114.047562 114.047562 0 0 0-123.964741 123.964741 41.32158 41.32158 0 1 0 82.643161 0c0-31.817617 9.503963-41.32158 41.32158-41.32158s41.32158 9.503963 41.321581 41.32158c0 14.875769-4.95859 20.247574-23.140085 37.189422a158.261653 158.261653 0 0 0-59.503076 128.096899 41.32158 41.32158 0 0 0 82.643161 0z" fill="#199E65" p-id="3981"></path><path d="M460.01287 689.952212a41.32158 41.32158 0 1 1 41.32158 41.321581 41.32158 41.32158 0 0 1-41.32158-41.321581z m82.643161-123.964741a77.684571 77.684571 0 0 1 33.057264-67.767392A123.964741 123.964741 0 0 0 625.299191 400.70115a114.047562 114.047562 0 0 0-123.964741-123.964741 114.047562 114.047562 0 0 0-123.964741 123.964741 41.32158 41.32158 0 1 0 82.643161 0c0-31.817617 9.503963-41.32158 41.32158-41.321581s41.32158 9.503963 41.321581 41.321581c0 14.875769-4.95859 20.247574-23.140085 37.189422a158.261653 158.261653 0 0 0-59.503076 128.096899 41.32158 41.32158 0 0 0 82.643161 0z" fill="#00FF91" p-id="3982"></path></svg>