<?xml version="1.0" standalone="no"?><!DOCTYPE svg PUBLIC "-//W3C//DTD SVG 1.1//EN" "http://www.w3.org/Graphics/SVG/1.1/DTD/svg11.dtd"><svg t="1638002924743" class="icon" viewBox="0 0 1031 1024" version="1.1" xmlns="http://www.w3.org/2000/svg" p-id="10779" xmlns:xlink="http://www.w3.org/1999/xlink" width="201.3671875" height="200"><defs><style type="text/css"></style></defs><path d="M1025.53985 319.518797V939.308271c0 46.965414-37.726316 84.691729-84.69173 84.691729H91.621053C44.655639 1024 6.159398 986.273684 6.159398 939.308271V90.081203C6.159398 43.115789 43.885714 5.389474 91.621053 5.389474h627.488721c20.78797 0 40.806015 5.389474 57.744361 16.168421 7.699248 4.619549 15.398496 10.778947 22.32782 16.938346l187.861654 187.861654c24.637594 24.637594 38.496241 57.744361 38.496241 93.160902z" fill="#4988FD" p-id="10780"></path><path d="M111.639098 1024V512.769925h816.1203V1024" fill="#DFECFD" p-id="10781"></path><path d="M776.854135 20.78797v362.634586H111.639098V5.389474h607.470676c20.78797-0.769925 40.806015 5.389474 57.744361 15.398496z" fill="#C5DCFA" p-id="10782"></path><path d="M823.049624 682.923308H227.897744c-10.778947 0-19.24812-8.469173-19.24812-19.24812s8.469173-19.24812 19.24812-19.24812h595.15188c10.778947 0 19.24812 8.469173 19.24812 19.24812s-9.239098 19.24812-19.24812 19.24812zM823.049624 791.482707H227.897744c-10.778947 0-19.24812-8.469173-19.24812-19.248121s8.469173-19.24812 19.24812-19.24812h595.15188c10.778947 0 19.24812 8.469173 19.24812 19.24812s-9.239098 19.24812-19.24812 19.248121zM539.717293 900.042105H227.12782c-10.778947 0-19.24812-8.469173-19.248121-19.24812s8.469173-19.24812 19.248121-19.24812h312.589473c10.778947 0 19.24812 8.469173 19.248121 19.24812s-8.469173 19.24812-19.248121 19.24812z" fill="#4988FD" p-id="10783"></path><path d="M665.984962 302.580451h-54.664661c-6.929323 0-13.088722-5.389474-13.088722-13.088722V108.559398c0-6.929323 5.389474-13.088722 13.088722-13.088721h54.664661c6.929323 0 13.088722 5.389474 13.088722 13.088721v180.932331c0 7.699248-5.389474 13.088722-13.088722 13.088722z" fill="#2767F4" p-id="10784"></path></svg>