<?xml version="1.0" standalone="no"?><!DOCTYPE svg PUBLIC "-//W3C//DTD SVG 1.1//EN" "http://www.w3.org/Graphics/SVG/1.1/DTD/svg11.dtd"><svg t="1638000173923" class="icon" viewBox="0 0 1024 1024" version="1.1" xmlns="http://www.w3.org/2000/svg" p-id="4113" xmlns:xlink="http://www.w3.org/1999/xlink" width="200" height="200"><defs><style type="text/css"></style></defs><path d="M951.153623 642.408796l-33.87676-34.723678a84.691898 84.691898 0 0 1-25.407569-65.636221 384.501217 384.501217 0 0 0 0-70.294275 82.151141 82.151141 0 0 1 24.560651-64.789302l34.300218-35.147138a84.691898 84.691898 0 0 0 12.703785-101.630278l-20.749515-35.994056a84.691898 84.691898 0 0 0-93.584547-39.805192l-51.238599 12.703784a84.691898 84.691898 0 0 1-69.023897-13.127244q-13.127244-9.316109-27.524867-17.361839t-27.524866-13.974163a84.691898 84.691898 0 0 1-47.427463-55.049734l-12.703785-45.733625A84.691898 84.691898 0 0 0 530.234889 0.02075h-42.345949a84.691898 84.691898 0 0 0-78.763465 61.401626l-15.668001 52.508976a84.691898 84.691898 0 0 1-42.345949 51.662058 384.501217 384.501217 0 0 0-59.707788 35.147138 84.691898 84.691898 0 0 1-68.176978 13.127244L174.528917 202.434386a84.691898 84.691898 0 0 0-93.584547 42.345949l-21.172974 37.687895A84.691898 84.691898 0 0 0 71.628261 381.134291l33.876759 34.723678A84.691898 84.691898 0 0 1 132.182968 481.91765 384.501217 384.501217 0 0 0 132.182968 550.518087a82.151141 82.151141 0 0 1-24.56065 64.789302l-34.300219 35.147138a84.691898 84.691898 0 0 0-12.703784 101.630277l20.749515 35.994057a84.691898 84.691898 0 0 0 93.161087 41.075571l51.238599-12.703785a84.691898 84.691898 0 0 1 69.023897 13.127244q13.127244 9.316109 27.524867 17.361839t27.524866 13.974163a84.691898 84.691898 0 0 1 47.427463 55.049734l12.703785 45.733625a84.691898 84.691898 0 0 0 84.691898 62.248545h42.345949a84.691898 84.691898 0 0 0 79.610384-60.554707l15.668001-52.508977a84.691898 84.691898 0 0 1 42.34595-51.662058 384.501217 384.501217 0 0 0 59.707788-35.147137 84.691898 84.691898 0 0 1 68.176978-13.127244l49.1213 11.856865a84.691898 84.691898 0 0 0 93.584548-42.345949l21.172974-37.687894a84.691898 84.691898 0 0 0-15.244541-100.3599zM513.29651 681.367069a169.383796 169.383796 0 1 1 169.383796-169.383796 169.383796 169.383796 0 0 1-169.383796 169.383796z" fill="#FC284F" p-id="4114"></path><path d="M490.006238 279.080554a254.075694 254.075694 0 1 0 254.075694 254.075694 254.075694 254.075694 0 0 0-254.075694-254.075694z m127.037847 362.481323a169.383796 169.383796 0 1 1-235.443477-237.560774 169.383796 169.383796 0 1 1 237.560774 237.560774z" fill="#A31C3C" p-id="4115"></path><path d="M513.29651 766.058968a254.075694 254.075694 0 1 1 254.075694-254.075695 254.075694 254.075694 0 0 1-254.075694 254.075695z m0-423.459491a169.383796 169.383796 0 1 0 169.383796 169.383796 169.383796 169.383796 0 0 0-169.383796-169.383796z" fill="#FEA887" p-id="4116"></path></svg>